<mxfile host="app.diagrams.net" modified="2022-03-11T21:32:37.078Z" agent="5.0 (Windows NT 10.0; Win64; x64) AppleWebKit/537.36 (KHTML, like Gecko) Chrome/99.0.4844.51 Safari/537.36" etag="nBPG8gNKJaqM8qCLtIka" version="17.1.2" type="github">
  <diagram id="vhHFqeazi1phlkYAp15O" name="Page-1">
    <mxGraphModel dx="1258" dy="699" grid="1" gridSize="10" guides="1" tooltips="1" connect="1" arrows="1" fold="1" page="1" pageScale="1" pageWidth="850" pageHeight="1100" math="0" shadow="0">
      <root>
        <mxCell id="0" />
        <mxCell id="1" parent="0" />
        <mxCell id="eNYTUic8lGbxVwCdVfwW-1" value="first_name: string&lt;br&gt;last_name: string&lt;br&gt;user_name: string&lt;br&gt;display_name: string&lt;br&gt;email: string&lt;br&gt;gender: string&lt;br&gt;major: string&lt;br&gt;tutor_major: string&lt;br&gt;password: int&lt;br&gt;description: string&lt;br&gt;created_at: datetime&lt;br&gt;updated_at: datetime" style="whiteSpace=wrap;html=1;aspect=fixed;" vertex="1" parent="1">
          <mxGeometry x="110" y="150" width="190" height="190" as="geometry" />
        </mxCell>
        <mxCell id="eNYTUic8lGbxVwCdVfwW-3" value="&lt;font style=&quot;font-size: 18px&quot;&gt;&lt;b&gt;User&lt;/b&gt;&lt;/font&gt;" style="rounded=0;whiteSpace=wrap;html=1;" vertex="1" parent="1">
          <mxGeometry x="110" y="80" width="190" height="60" as="geometry" />
        </mxCell>
        <mxCell id="eNYTUic8lGbxVwCdVfwW-4" value="title: string&lt;br&gt;description: string&lt;br&gt;tutor area: string&lt;br&gt;price: string&lt;br&gt;schedule: datetime&lt;br&gt;user_id: int" style="whiteSpace=wrap;html=1;aspect=fixed;" vertex="1" parent="1">
          <mxGeometry x="410" y="150" width="190" height="190" as="geometry" />
        </mxCell>
        <mxCell id="eNYTUic8lGbxVwCdVfwW-5" value="&lt;font style=&quot;font-size: 18px&quot;&gt;&lt;b&gt;Post&lt;/b&gt;&lt;/font&gt;" style="rounded=0;whiteSpace=wrap;html=1;" vertex="1" parent="1">
          <mxGeometry x="410" y="80" width="190" height="60" as="geometry" />
        </mxCell>
        <mxCell id="eNYTUic8lGbxVwCdVfwW-7" value="" style="endArrow=classic;startArrow=classic;html=1;rounded=0;fontSize=18;entryX=1.009;entryY=0.465;entryDx=0;entryDy=0;entryPerimeter=0;" edge="1" parent="1" target="eNYTUic8lGbxVwCdVfwW-1">
          <mxGeometry width="50" height="50" relative="1" as="geometry">
            <mxPoint x="410" y="238" as="sourcePoint" />
            <mxPoint x="360" y="210" as="targetPoint" />
            <Array as="points" />
          </mxGeometry>
        </mxCell>
        <mxCell id="eNYTUic8lGbxVwCdVfwW-12" value="*" style="text;html=1;align=center;verticalAlign=middle;resizable=0;points=[];autosize=1;strokeColor=none;fillColor=none;fontSize=18;" vertex="1" parent="1">
          <mxGeometry x="380" y="215" width="20" height="30" as="geometry" />
        </mxCell>
      </root>
    </mxGraphModel>
  </diagram>
</mxfile>
